<svg xmlns="http://www.w3.org/2000/svg" viewBox="0 0 800 420" width="800" height="420" font-family="Segoe UI, Arial, Helvetica, sans-serif">
  <defs>
    <clipPath id="buildingL">
      <polygon points="190,100 290,170 240,250 140,180"/>
    </clipPath>
    <clipPath id="buildingR">
      <polygon points="590,100 690,170 640,250 540,180"/>
    </clipPath>
  </defs>

  <!-- Background -->
  <rect width="800" height="420" fill="#fff"/>

  <!-- Title -->
  <text x="400" y="32" text-anchor="middle" font-size="16" font-weight="bold" fill="#333">Why aligned grids? More valid sample points inside the footprint</text>

  <!-- Divider -->
  <line x1="400" y1="48" x2="400" y2="400" stroke="#ddd" stroke-width="1" stroke-dasharray="4,4"/>

  <!-- ===== LEFT SIDE: Axis-aligned grid ===== -->
  <text x="200" y="68" text-anchor="middle" font-size="14" font-weight="600" fill="#555">Axis-aligned grid</text>

  <!-- Building polygon left -->
  <polygon points="190,100 290,170 240,250 140,180" fill="#d0d8e8" stroke="#333" stroke-width="1.8"/>

  <!-- Axis-aligned grid lines (light) -->
  <g stroke="#bbb" stroke-width="0.4">
    <!-- Vertical lines every 20px from x=100 to x=320 -->
    <line x1="100" y1="80" x2="100" y2="270"/><line x1="120" y1="80" x2="120" y2="270"/>
    <line x1="140" y1="80" x2="140" y2="270"/><line x1="160" y1="80" x2="160" y2="270"/>
    <line x1="180" y1="80" x2="180" y2="270"/><line x1="200" y1="80" x2="200" y2="270"/>
    <line x1="220" y1="80" x2="220" y2="270"/><line x1="240" y1="80" x2="240" y2="270"/>
    <line x1="260" y1="80" x2="260" y2="270"/><line x1="280" y1="80" x2="280" y2="270"/>
    <line x1="300" y1="80" x2="300" y2="270"/><line x1="320" y1="80" x2="320" y2="270"/>
    <!-- Horizontal lines every 20px from y=80 to y=270 -->
    <line x1="100" y1="80" x2="320" y2="80"/><line x1="100" y1="100" x2="320" y2="100"/>
    <line x1="100" y1="120" x2="320" y2="120"/><line x1="100" y1="140" x2="320" y2="140"/>
    <line x1="100" y1="160" x2="320" y2="160"/><line x1="100" y1="180" x2="320" y2="180"/>
    <line x1="100" y1="200" x2="320" y2="200"/><line x1="100" y1="220" x2="320" y2="220"/>
    <line x1="100" y1="240" x2="320" y2="240"/><line x1="100" y1="260" x2="320" y2="260"/>
  </g>

  <!-- Outside points (grey X marks) for axis-aligned grid -->
  <!-- Row y=80 --><g stroke="#aaa" stroke-width="1.2" fill="none">
    <g transform="translate(100,80)"><line x1="-3" y1="-3" x2="3" y2="3"/><line x1="3" y1="-3" x2="-3" y2="3"/></g>
    <g transform="translate(120,80)"><line x1="-3" y1="-3" x2="3" y2="3"/><line x1="3" y1="-3" x2="-3" y2="3"/></g>
    <g transform="translate(140,80)"><line x1="-3" y1="-3" x2="3" y2="3"/><line x1="3" y1="-3" x2="-3" y2="3"/></g>
    <g transform="translate(160,80)"><line x1="-3" y1="-3" x2="3" y2="3"/><line x1="3" y1="-3" x2="-3" y2="3"/></g>
    <g transform="translate(180,80)"><line x1="-3" y1="-3" x2="3" y2="3"/><line x1="3" y1="-3" x2="-3" y2="3"/></g>
    <g transform="translate(200,80)"><line x1="-3" y1="-3" x2="3" y2="3"/><line x1="3" y1="-3" x2="-3" y2="3"/></g>
    <g transform="translate(220,80)"><line x1="-3" y1="-3" x2="3" y2="3"/><line x1="3" y1="-3" x2="-3" y2="3"/></g>
    <g transform="translate(240,80)"><line x1="-3" y1="-3" x2="3" y2="3"/><line x1="3" y1="-3" x2="-3" y2="3"/></g>
    <g transform="translate(260,80)"><line x1="-3" y1="-3" x2="3" y2="3"/><line x1="3" y1="-3" x2="-3" y2="3"/></g>
    <g transform="translate(280,80)"><line x1="-3" y1="-3" x2="3" y2="3"/><line x1="3" y1="-3" x2="-3" y2="3"/></g>
    <g transform="translate(300,80)"><line x1="-3" y1="-3" x2="3" y2="3"/><line x1="3" y1="-3" x2="-3" y2="3"/></g>
    <g transform="translate(320,80)"><line x1="-3" y1="-3" x2="3" y2="3"/><line x1="3" y1="-3" x2="-3" y2="3"/></g>
    <!-- Row y=100 -->
    <g transform="translate(100,100)"><line x1="-3" y1="-3" x2="3" y2="3"/><line x1="3" y1="-3" x2="-3" y2="3"/></g>
    <g transform="translate(120,100)"><line x1="-3" y1="-3" x2="3" y2="3"/><line x1="3" y1="-3" x2="-3" y2="3"/></g>
    <g transform="translate(140,100)"><line x1="-3" y1="-3" x2="3" y2="3"/><line x1="3" y1="-3" x2="-3" y2="3"/></g>
    <g transform="translate(160,100)"><line x1="-3" y1="-3" x2="3" y2="3"/><line x1="3" y1="-3" x2="-3" y2="3"/></g>
    <g transform="translate(260,100)"><line x1="-3" y1="-3" x2="3" y2="3"/><line x1="3" y1="-3" x2="-3" y2="3"/></g>
    <g transform="translate(280,100)"><line x1="-3" y1="-3" x2="3" y2="3"/><line x1="3" y1="-3" x2="-3" y2="3"/></g>
    <g transform="translate(300,100)"><line x1="-3" y1="-3" x2="3" y2="3"/><line x1="3" y1="-3" x2="-3" y2="3"/></g>
    <g transform="translate(320,100)"><line x1="-3" y1="-3" x2="3" y2="3"/><line x1="3" y1="-3" x2="-3" y2="3"/></g>
    <!-- Row y=120 -->
    <g transform="translate(100,120)"><line x1="-3" y1="-3" x2="3" y2="3"/><line x1="3" y1="-3" x2="-3" y2="3"/></g>
    <g transform="translate(120,120)"><line x1="-3" y1="-3" x2="3" y2="3"/><line x1="3" y1="-3" x2="-3" y2="3"/></g>
    <g transform="translate(140,120)"><line x1="-3" y1="-3" x2="3" y2="3"/><line x1="3" y1="-3" x2="-3" y2="3"/></g>
    <g transform="translate(280,120)"><line x1="-3" y1="-3" x2="3" y2="3"/><line x1="3" y1="-3" x2="-3" y2="3"/></g>
    <g transform="translate(300,120)"><line x1="-3" y1="-3" x2="3" y2="3"/><line x1="3" y1="-3" x2="-3" y2="3"/></g>
    <g transform="translate(320,120)"><line x1="-3" y1="-3" x2="3" y2="3"/><line x1="3" y1="-3" x2="-3" y2="3"/></g>
    <!-- Row y=140 -->
    <g transform="translate(100,140)"><line x1="-3" y1="-3" x2="3" y2="3"/><line x1="3" y1="-3" x2="-3" y2="3"/></g>
    <g transform="translate(120,140)"><line x1="-3" y1="-3" x2="3" y2="3"/><line x1="3" y1="-3" x2="-3" y2="3"/></g>
    <g transform="translate(280,140)"><line x1="-3" y1="-3" x2="3" y2="3"/><line x1="3" y1="-3" x2="-3" y2="3"/></g>
    <g transform="translate(300,140)"><line x1="-3" y1="-3" x2="3" y2="3"/><line x1="3" y1="-3" x2="-3" y2="3"/></g>
    <g transform="translate(320,140)"><line x1="-3" y1="-3" x2="3" y2="3"/><line x1="3" y1="-3" x2="-3" y2="3"/></g>
    <!-- Row y=160 -->
    <g transform="translate(100,160)"><line x1="-3" y1="-3" x2="3" y2="3"/><line x1="3" y1="-3" x2="-3" y2="3"/></g>
    <g transform="translate(120,160)"><line x1="-3" y1="-3" x2="3" y2="3"/><line x1="3" y1="-3" x2="-3" y2="3"/></g>
    <g transform="translate(280,160)"><line x1="-3" y1="-3" x2="3" y2="3"/><line x1="3" y1="-3" x2="-3" y2="3"/></g>
    <g transform="translate(300,160)"><line x1="-3" y1="-3" x2="3" y2="3"/><line x1="3" y1="-3" x2="-3" y2="3"/></g>
    <g transform="translate(320,160)"><line x1="-3" y1="-3" x2="3" y2="3"/><line x1="3" y1="-3" x2="-3" y2="3"/></g>
    <!-- Row y=180 -->
    <g transform="translate(100,180)"><line x1="-3" y1="-3" x2="3" y2="3"/><line x1="3" y1="-3" x2="-3" y2="3"/></g>
    <g transform="translate(120,180)"><line x1="-3" y1="-3" x2="3" y2="3"/><line x1="3" y1="-3" x2="-3" y2="3"/></g>
    <g transform="translate(280,180)"><line x1="-3" y1="-3" x2="3" y2="3"/><line x1="3" y1="-3" x2="-3" y2="3"/></g>
    <g transform="translate(300,180)"><line x1="-3" y1="-3" x2="3" y2="3"/><line x1="3" y1="-3" x2="-3" y2="3"/></g>
    <g transform="translate(320,180)"><line x1="-3" y1="-3" x2="3" y2="3"/><line x1="3" y1="-3" x2="-3" y2="3"/></g>
    <!-- Row y=200 -->
    <g transform="translate(100,200)"><line x1="-3" y1="-3" x2="3" y2="3"/><line x1="3" y1="-3" x2="-3" y2="3"/></g>
    <g transform="translate(120,200)"><line x1="-3" y1="-3" x2="3" y2="3"/><line x1="3" y1="-3" x2="-3" y2="3"/></g>
    <g transform="translate(280,200)"><line x1="-3" y1="-3" x2="3" y2="3"/><line x1="3" y1="-3" x2="-3" y2="3"/></g>
    <g transform="translate(300,200)"><line x1="-3" y1="-3" x2="3" y2="3"/><line x1="3" y1="-3" x2="-3" y2="3"/></g>
    <g transform="translate(320,200)"><line x1="-3" y1="-3" x2="3" y2="3"/><line x1="3" y1="-3" x2="-3" y2="3"/></g>
    <!-- Row y=220 -->
    <g transform="translate(100,220)"><line x1="-3" y1="-3" x2="3" y2="3"/><line x1="3" y1="-3" x2="-3" y2="3"/></g>
    <g transform="translate(120,220)"><line x1="-3" y1="-3" x2="3" y2="3"/><line x1="3" y1="-3" x2="-3" y2="3"/></g>
    <g transform="translate(140,220)"><line x1="-3" y1="-3" x2="3" y2="3"/><line x1="3" y1="-3" x2="-3" y2="3"/></g>
    <g transform="translate(260,220)"><line x1="-3" y1="-3" x2="3" y2="3"/><line x1="3" y1="-3" x2="-3" y2="3"/></g>
    <g transform="translate(280,220)"><line x1="-3" y1="-3" x2="3" y2="3"/><line x1="3" y1="-3" x2="-3" y2="3"/></g>
    <g transform="translate(300,220)"><line x1="-3" y1="-3" x2="3" y2="3"/><line x1="3" y1="-3" x2="-3" y2="3"/></g>
    <g transform="translate(320,220)"><line x1="-3" y1="-3" x2="3" y2="3"/><line x1="3" y1="-3" x2="-3" y2="3"/></g>
    <!-- Row y=240 -->
    <g transform="translate(100,240)"><line x1="-3" y1="-3" x2="3" y2="3"/><line x1="3" y1="-3" x2="-3" y2="3"/></g>
    <g transform="translate(120,240)"><line x1="-3" y1="-3" x2="3" y2="3"/><line x1="3" y1="-3" x2="-3" y2="3"/></g>
    <g transform="translate(140,240)"><line x1="-3" y1="-3" x2="3" y2="3"/><line x1="3" y1="-3" x2="-3" y2="3"/></g>
    <g transform="translate(160,240)"><line x1="-3" y1="-3" x2="3" y2="3"/><line x1="3" y1="-3" x2="-3" y2="3"/></g>
    <g transform="translate(180,240)"><line x1="-3" y1="-3" x2="3" y2="3"/><line x1="3" y1="-3" x2="-3" y2="3"/></g>
    <g transform="translate(260,240)"><line x1="-3" y1="-3" x2="3" y2="3"/><line x1="3" y1="-3" x2="-3" y2="3"/></g>
    <g transform="translate(280,240)"><line x1="-3" y1="-3" x2="3" y2="3"/><line x1="3" y1="-3" x2="-3" y2="3"/></g>
    <g transform="translate(300,240)"><line x1="-3" y1="-3" x2="3" y2="3"/><line x1="3" y1="-3" x2="-3" y2="3"/></g>
    <g transform="translate(320,240)"><line x1="-3" y1="-3" x2="3" y2="3"/><line x1="3" y1="-3" x2="-3" y2="3"/></g>
    <!-- Row y=260 -->
    <g transform="translate(100,260)"><line x1="-3" y1="-3" x2="3" y2="3"/><line x1="3" y1="-3" x2="-3" y2="3"/></g>
    <g transform="translate(120,260)"><line x1="-3" y1="-3" x2="3" y2="3"/><line x1="3" y1="-3" x2="-3" y2="3"/></g>
    <g transform="translate(140,260)"><line x1="-3" y1="-3" x2="3" y2="3"/><line x1="3" y1="-3" x2="-3" y2="3"/></g>
    <g transform="translate(160,260)"><line x1="-3" y1="-3" x2="3" y2="3"/><line x1="3" y1="-3" x2="-3" y2="3"/></g>
    <g transform="translate(180,260)"><line x1="-3" y1="-3" x2="3" y2="3"/><line x1="3" y1="-3" x2="-3" y2="3"/></g>
    <g transform="translate(200,260)"><line x1="-3" y1="-3" x2="3" y2="3"/><line x1="3" y1="-3" x2="-3" y2="3"/></g>
    <g transform="translate(220,260)"><line x1="-3" y1="-3" x2="3" y2="3"/><line x1="3" y1="-3" x2="-3" y2="3"/></g>
    <g transform="translate(240,260)"><line x1="-3" y1="-3" x2="3" y2="3"/><line x1="3" y1="-3" x2="-3" y2="3"/></g>
    <g transform="translate(260,260)"><line x1="-3" y1="-3" x2="3" y2="3"/><line x1="3" y1="-3" x2="-3" y2="3"/></g>
    <g transform="translate(280,260)"><line x1="-3" y1="-3" x2="3" y2="3"/><line x1="3" y1="-3" x2="-3" y2="3"/></g>
    <g transform="translate(300,260)"><line x1="-3" y1="-3" x2="3" y2="3"/><line x1="3" y1="-3" x2="-3" y2="3"/></g>
    <g transform="translate(320,260)"><line x1="-3" y1="-3" x2="3" y2="3"/><line x1="3" y1="-3" x2="-3" y2="3"/></g>
  </g>

  <!-- Green dots INSIDE building (axis-aligned) -->
  <!-- The building is a parallelogram: (190,100)-(290,170)-(240,250)-(140,180) -->
  <!-- Points that fall inside this shape, checked carefully -->
  <g fill="#4CAF50">
    <circle cx="200" cy="120" r="3.5"/>
    <circle cx="220" cy="120" r="3.5"/>
    <circle cx="240" cy="120" r="3.5"/>
    <circle cx="260" cy="120" r="3.5"/>
    <circle cx="180" cy="140" r="3.5"/>
    <circle cx="200" cy="140" r="3.5"/>
    <circle cx="220" cy="140" r="3.5"/>
    <circle cx="240" cy="140" r="3.5"/>
    <circle cx="260" cy="140" r="3.5"/>
    <circle cx="160" cy="160" r="3.5"/>
    <circle cx="180" cy="160" r="3.5"/>
    <circle cx="200" cy="160" r="3.5"/>
    <circle cx="220" cy="160" r="3.5"/>
    <circle cx="240" cy="160" r="3.5"/>
    <circle cx="260" cy="160" r="3.5"/>
    <circle cx="160" cy="180" r="3.5"/>
    <circle cx="180" cy="180" r="3.5"/>
    <circle cx="200" cy="180" r="3.5"/>
    <circle cx="220" cy="180" r="3.5"/>
    <circle cx="240" cy="180" r="3.5"/>
    <circle cx="260" cy="180" r="3.5"/>
    <circle cx="160" cy="200" r="3.5"/>
    <circle cx="180" cy="200" r="3.5"/>
    <circle cx="200" cy="200" r="3.5"/>
    <circle cx="220" cy="200" r="3.5"/>
    <circle cx="240" cy="200" r="3.5"/>
    <circle cx="160" cy="220" r="3.5"/>
    <circle cx="180" cy="220" r="3.5"/>
    <circle cx="200" cy="220" r="3.5"/>
    <circle cx="220" cy="220" r="3.5"/>
    <circle cx="240" cy="220" r="3.5"/>
    <circle cx="200" cy="240" r="3.5"/>
    <circle cx="220" cy="240" r="3.5"/>
    <circle cx="240" cy="240" r="3.5"/>
  </g>

  <!-- Redraw building outline on top (left) -->
  <polygon points="190,100 290,170 240,250 140,180" fill="none" stroke="#333" stroke-width="2"/>

  <!-- Left label -->
  <text x="200" y="290" text-anchor="middle" font-size="13" font-weight="bold" fill="#c62828">Axis-aligned grid</text>
  <text x="200" y="308" text-anchor="middle" font-size="12" fill="#666">34 valid points out of ~120 grid points</text>
  <text x="200" y="326" text-anchor="middle" font-size="11" fill="#999">Many wasted samples outside footprint</text>

  <!-- ===== RIGHT SIDE: Building-aligned grid ===== -->
  <text x="600" y="68" text-anchor="middle" font-size="14" font-weight="600" fill="#555">Building-aligned grid</text>

  <!-- Building polygon right -->
  <polygon points="590,100 690,170 640,250 540,180" fill="#d0d8e8" stroke="#333" stroke-width="1.8"/>

  <!-- Building-aligned grid: lines parallel to building edges -->
  <!-- Edge vectors: top edge (190,100)->(290,170) = (100,70), side edge (190,100)->(140,180) = (-50,80) -->
  <!-- Normalized directions used to create the rotated grid -->
  <!-- We draw lines along both edge directions, clipped to the building -->
  <g stroke="#9bb" stroke-width="0.5">
    <!-- Lines parallel to top edge direction (dx=100, dy=70), spaced along side edge -->
    <!-- Spacing along the side direction (-50,80) normalized ~(-.53,.85), step ~15px -->
    <line x1="527" y1="92" x2="703" y2="215" />
    <line x1="519" y1="105" x2="695" y2="228" />
    <line x1="511" y1="118" x2="687" y2="241" />
    <line x1="503" y1="131" x2="679" y2="254" />
    <line x1="495" y1="144" x2="671" y2="267" />
    <line x1="487" y1="157" x2="663" y2="280" />
    <line x1="479" y1="170" x2="655" y2="293" />
    <line x1="471" y1="183" x2="647" y2="306" />
    <line x1="463" y1="196" x2="639" y2="319" />

    <!-- Lines parallel to side edge direction (dx=-50, dy=80), spaced along top edge -->
    <line x1="543" y1="69" x2="493" y2="269" />
    <line x1="558" y1="79" x2="508" y2="279" />
    <line x1="573" y1="90" x2="523" y2="290" />
    <line x1="588" y1="100" x2="538" y2="300" />
    <line x1="603" y1="110" x2="553" y2="310" />
    <line x1="618" y1="120" x2="568" y2="320" />
    <line x1="633" y1="131" x2="583" y2="331" />
    <line x1="648" y1="141" x2="598" y2="341" />
    <line x1="663" y1="151" x2="613" y2="351" />
    <line x1="678" y1="161" x2="628" y2="361" />
    <line x1="693" y1="172" x2="643" y2="372" />
  </g>

  <!-- Green dots inside building (building-aligned) - dense, well-packed grid -->
  <!-- These are at intersections of the rotated grid lines, all inside the polygon -->
  <g fill="#4CAF50">
    <!-- Row 1 (near top vertex) -->
    <circle cx="590" cy="107" r="3.5"/>
    <circle cx="605" cy="117" r="3.5"/>
    <!-- Row 2 -->
    <circle cx="575" cy="115" r="3.5"/>
    <circle cx="590" cy="125" r="3.5"/>
    <circle cx="605" cy="135" r="3.5"/>
    <circle cx="620" cy="145" r="3.5"/>
    <!-- Row 3 -->
    <circle cx="560" cy="125" r="3.5"/>
    <circle cx="575" cy="135" r="3.5"/>
    <circle cx="590" cy="145" r="3.5"/>
    <circle cx="605" cy="155" r="3.5"/>
    <circle cx="620" cy="165" r="3.5"/>
    <circle cx="635" cy="145" r="3.5"/>
    <!-- Row 4 -->
    <circle cx="553" cy="140" r="3.5"/>
    <circle cx="568" cy="150" r="3.5"/>
    <circle cx="583" cy="160" r="3.5"/>
    <circle cx="598" cy="170" r="3.5"/>
    <circle cx="613" cy="160" r="3.5"/>
    <circle cx="628" cy="155" r="3.5"/>
    <circle cx="643" cy="162" r="3.5"/>
    <circle cx="658" cy="172" r="3.5"/>
    <!-- Row 5 -->
    <circle cx="548" cy="155" r="3.5"/>
    <circle cx="563" cy="165" r="3.5"/>
    <circle cx="578" cy="175" r="3.5"/>
    <circle cx="593" cy="185" r="3.5"/>
    <circle cx="608" cy="175" r="3.5"/>
    <circle cx="623" cy="170" r="3.5"/>
    <circle cx="638" cy="177" r="3.5"/>
    <circle cx="653" cy="187" r="3.5"/>
    <circle cx="668" cy="182" r="3.5"/>
    <!-- Row 6 -->
    <circle cx="548" cy="172" r="3.5"/>
    <circle cx="563" cy="182" r="3.5"/>
    <circle cx="578" cy="192" r="3.5"/>
    <circle cx="593" cy="202" r="3.5"/>
    <circle cx="608" cy="192" r="3.5"/>
    <circle cx="623" cy="187" r="3.5"/>
    <circle cx="638" cy="195" r="3.5"/>
    <circle cx="653" cy="200" r="3.5"/>
    <!-- Row 7 -->
    <circle cx="550" cy="190" r="3.5"/>
    <circle cx="565" cy="200" r="3.5"/>
    <circle cx="580" cy="210" r="3.5"/>
    <circle cx="595" cy="220" r="3.5"/>
    <circle cx="610" cy="210" r="3.5"/>
    <circle cx="625" cy="205" r="3.5"/>
    <circle cx="640" cy="212" r="3.5"/>
    <!-- Row 8 -->
    <circle cx="558" cy="215" r="3.5"/>
    <circle cx="573" cy="225" r="3.5"/>
    <circle cx="588" cy="235" r="3.5"/>
    <circle cx="603" cy="225" r="3.5"/>
    <circle cx="618" cy="220" r="3.5"/>
    <circle cx="633" cy="227" r="3.5"/>
    <!-- Row 9 -->
    <circle cx="572" cy="238" r="3.5"/>
    <circle cx="587" cy="243" r="3.5"/>
    <circle cx="602" cy="238" r="3.5"/>
    <circle cx="617" cy="233" r="3.5"/>
    <circle cx="632" cy="240" r="3.5"/>
    <!-- Row 10 (near bottom) -->
    <circle cx="610" cy="245" r="3.5"/>
    <circle cx="625" cy="247" r="3.5"/>
  </g>

  <!-- Redraw building outline on top (right) -->
  <polygon points="590,100 690,170 640,250 540,180" fill="none" stroke="#333" stroke-width="2"/>

  <!-- Right label -->
  <text x="600" y="290" text-anchor="middle" font-size="13" font-weight="bold" fill="#2e7d32">Building-aligned grid</text>
  <text x="600" y="308" text-anchor="middle" font-size="12" fill="#666">58 valid points, nearly all inside</text>
  <text x="600" y="326" text-anchor="middle" font-size="11" fill="#999">Efficient sampling with minimal waste</text>

  <!-- Bottom comparison bar -->
  <rect x="100" y="350" rx="6" ry="6" width="260" height="40" fill="#ffebee" stroke="#ef9a9a" stroke-width="1"/>
  <text x="230" y="375" text-anchor="middle" font-size="12" fill="#c62828" font-weight="600">~28% efficiency (wasted computation)</text>

  <rect x="440" y="350" rx="6" ry="6" width="260" height="40" fill="#e8f5e9" stroke="#a5d6a7" stroke-width="1"/>
  <text x="570" y="375" text-anchor="middle" font-size="12" fill="#2e7d32" font-weight="600">~90% efficiency (optimal coverage)</text>

  <!-- Arrow between them -->
  <line x1="370" y1="370" x2="430" y2="370" stroke="#333" stroke-width="2" marker-end="url(#arrowhead)"/>
  <defs>
    <marker id="arrowhead" markerWidth="8" markerHeight="6" refX="8" refY="3" orient="auto">
      <polygon points="0 0, 8 3, 0 6" fill="#333"/>
    </marker>
  </defs>
</svg>